<svg width="1451" height="156" viewBox="0 0 1451 156" fill="none" xmlns="http://www.w3.org/2000/svg">
<path fill-rule="evenodd" clip-rule="evenodd" d="M0 49.8919L60.4583 58.7342C120.917 67.5766 241.833 85.2612 362.75 79.3663C483.667 73.4714 604.583 43.997 725.5 23.3648C846.417 2.73269 967.333 -9.05711 1088.25 8.62758C1209.17 26.3123 1330.08 73.4714 1390.54 97.051L1451 120.631V156H1390.54C1330.08 156 1209.17 156 1088.25 156C967.333 156 846.417 156 725.5 156C604.583 156 483.667 156 362.75 156C241.833 156 120.917 156 60.4583 156H0V49.8919Z" fill="#211D3B"/>
</svg>
